<mxfile host="65bd71144e">
    <diagram id="technical-architecture" name="Technical Architecture">
        <mxGraphModel dx="1618" dy="467" grid="1" gridSize="10" guides="1" tooltips="1" connect="1" arrows="1" fold="1" page="1" pageScale="1" pageWidth="827" pageHeight="1169" math="0" shadow="0">
            <root>
                <mxCell id="0"/>
                <mxCell id="1" parent="0"/>
                <mxCell id="2" value="Frontend Layer" style="swimlane;fontStyle=1;align=center;verticalAlign=top;childLayout=stackLayout;horizontal=1;startSize=26;horizontalStack=0;resizeParent=1;fillColor=#e1d5e7;strokeColor=#9673a6;" parent="1" vertex="1">
                    <mxGeometry x="40" y="40" width="280" height="160" as="geometry"/>
                </mxCell>
                <mxCell id="3" value="Templates:&#xa;• ansi_viewer.html&#xa;• animated_viewer.html&#xa;• imageBrowser.html&#xa;&#xa;Scripts:&#xa;• imageBrowser.js&#xa;• ansi_viewer.js&#xa;&#xa;Styles:&#xa;• imageBrowser.css&#xa;• ansi_viewer.css" style="text;strokeColor=none;fillColor=none;align=left;verticalAlign=top;spacingLeft=4;" parent="2" vertex="1">
                    <mxGeometry y="26" width="280" height="134" as="geometry"/>
                </mxCell>
                <mxCell id="4" value="Backend Layer (Flask)" style="swimlane;fontStyle=1;align=center;verticalAlign=top;childLayout=stackLayout;horizontal=1;startSize=26;fillColor=#d5e8d4;strokeColor=#82b366;" parent="1" vertex="1">
                    <mxGeometry x="400" y="40" width="280" height="160" as="geometry"/>
                </mxCell>
                <mxCell id="5" value="server.py:&#xa;• Route handlers&#xa;• File serving&#xa;• Image conversion endpoints&#xa;• Upload handling&#xa;&#xa;image_to_ansi.py:&#xa;• ANSI conversion logic&#xa;• Template rendering&#xa;• Animation generation" style="text;strokeColor=none;fillColor=none;align=left;verticalAlign=top;spacingLeft=4;" parent="4" vertex="1">
                    <mxGeometry y="26" width="280" height="134" as="geometry"/>
                </mxCell>
                <mxCell id="6" value="Utils Layer" style="swimlane;fontStyle=1;align=center;verticalAlign=top;childLayout=stackLayout;horizontal=1;startSize=26;fillColor=#fff2cc;strokeColor=#d6b656;" parent="1" vertex="1">
                    <mxGeometry x="40" y="240" width="280" height="140" as="geometry"/>
                </mxCell>
                <mxCell id="7" value="template_renderer.py:&#xa;• Template processing&#xa;• Context substitution&#xa;&#xa;file_utils.py:&#xa;• File validation&#xa;• Directory management&#xa;&#xa;image_utils.py:&#xa;• URL download&#xa;• Image processing" style="text;strokeColor=none;fillColor=none;align=left;verticalAlign=top;spacingLeft=4;" parent="6" vertex="1">
                    <mxGeometry y="26" width="280" height="114" as="geometry"/>
                </mxCell>
                <mxCell id="8" value="Storage Layer" style="swimlane;fontStyle=1;align=center;verticalAlign=top;childLayout=stackLayout;horizontal=1;startSize=26;fillColor=#f8cecc;strokeColor=#b85450;" parent="1" vertex="1">
                    <mxGeometry x="400" y="240" width="280" height="140" as="geometry"/>
                </mxCell>
                <mxCell id="9" value="Directories:&#xa;• images/ - Built-in images&#xa;• uploads/ - User uploads&#xa;• converted/ - Generated HTML&#xa;• static/ - Favicon, assets&#xa;• templates/ - HTML templates&#xa;• styles/ - CSS files&#xa;• scripts/ - JavaScript files" style="text;strokeColor=none;fillColor=none;align=left;verticalAlign=top;spacingLeft=4;" parent="8" vertex="1">
                    <mxGeometry y="26" width="280" height="114" as="geometry"/>
                </mxCell>
                <mxCell id="10" value="" style="endArrow=classic;html=1;strokeWidth=2;" parent="1" source="2" target="4" edge="1">
                    <mxGeometry width="50" height="50" relative="1" as="geometry"/>
                </mxCell>
                <mxCell id="11" value="" style="endArrow=classic;html=1;strokeWidth=2;" parent="1" source="4" target="6" edge="1">
                    <mxGeometry width="50" height="50" relative="1" as="geometry"/>
                </mxCell>
                <mxCell id="12" value="" style="endArrow=classic;html=1;strokeWidth=2;" parent="1" source="4" target="8" edge="1">
                    <mxGeometry width="50" height="50" relative="1" as="geometry"/>
                </mxCell>
                <mxCell id="13" value="" style="endArrow=classic;html=1;strokeWidth=2;" parent="1" source="6" target="8" edge="1">
                    <mxGeometry width="50" height="50" relative="1" as="geometry"/>
                </mxCell>
                <mxCell id="XjmrS7N3WGPcSrpZJggD-13" value="Server (Flask)" style="swimlane;fontStyle=1;align=center;verticalAlign=top;childLayout=stackLayout;horizontal=1;startSize=26;horizontalStack=0;resizeParent=1;resizeParentMax=0;resizeLast=0;collapsible=1;marginBottom=0;" vertex="1" parent="1">
                    <mxGeometry x="1100" y="30" width="200" height="130" as="geometry"/>
                </mxCell>
                <mxCell id="XjmrS7N3WGPcSrpZJggD-14" value="+ UPLOAD_FOLDER: str&#xa;+ ALLOWED_EXTENSIONS: set&#xa;+ STATIC_FOLDER: str" style="text;strokeColor=none;fillColor=none;align=left;verticalAlign=top;spacingLeft=4;spacingRight=4;overflow=hidden;rotatable=0;points=[[0,0.5],[1,0.5]];portConstraint=eastwest;" vertex="1" parent="XjmrS7N3WGPcSrpZJggD-13">
                    <mxGeometry y="26" width="200" height="54" as="geometry"/>
                </mxCell>
                <mxCell id="XjmrS7N3WGPcSrpZJggD-15" value="+ list_images()&#xa;+ convert_image(filename)&#xa;+ update_ansi()" style="text;strokeColor=none;fillColor=none;align=left;verticalAlign=top;spacingLeft=4;spacingRight=4;overflow=hidden;rotatable=0;points=[[0,0.5],[1,0.5]];portConstraint=eastwest;" vertex="1" parent="XjmrS7N3WGPcSrpZJggD-13">
                    <mxGeometry y="80" width="200" height="50" as="geometry"/>
                </mxCell>
                <mxCell id="XjmrS7N3WGPcSrpZJggD-16" value="Image Processing" style="swimlane;fontStyle=1;align=center;verticalAlign=top;childLayout=stackLayout;horizontal=1;startSize=26;horizontalStack=0;resizeParent=1;resizeParentMax=0;resizeLast=0;collapsible=1;marginBottom=0;" vertex="1" parent="1">
                    <mxGeometry x="1100" y="230" width="200" height="120" as="geometry"/>
                </mxCell>
                <mxCell id="XjmrS7N3WGPcSrpZJggD-17" value="+ image_to_ansi()&#xa;+ rgb_to_ansi()&#xa;+ generate_simple_animation()&#xa;+ create_html()" style="text;strokeColor=none;fillColor=none;align=left;verticalAlign=top;spacingLeft=4;spacingRight=4;overflow=hidden;rotatable=0;points=[[0,0.5],[1,0.5]];portConstraint=eastwest;" vertex="1" parent="XjmrS7N3WGPcSrpZJggD-16">
                    <mxGeometry y="26" width="200" height="94" as="geometry"/>
                </mxCell>
                <mxCell id="XjmrS7N3WGPcSrpZJggD-18" value="Utils" style="swimlane;fontStyle=1;align=center;verticalAlign=top;childLayout=stackLayout;horizontal=1;startSize=26;horizontalStack=0;resizeParent=1;resizeParentMax=0;resizeLast=0;collapsible=1;marginBottom=0;" vertex="1" parent="1">
                    <mxGeometry x="820" y="230" width="200" height="120" as="geometry"/>
                </mxCell>
                <mxCell id="XjmrS7N3WGPcSrpZJggD-19" value="+ allowed_file()&#xa;+ ensure_folder()&#xa;+ download_and_save_image()&#xa;+ create_favicon()" style="text;strokeColor=none;fillColor=none;align=left;verticalAlign=top;spacingLeft=4;spacingRight=4;overflow=hidden;rotatable=0;points=[[0,0.5],[1,0.5]];portConstraint=eastwest;" vertex="1" parent="XjmrS7N3WGPcSrpZJggD-18">
                    <mxGeometry y="26" width="200" height="94" as="geometry"/>
                </mxCell>
                <mxCell id="XjmrS7N3WGPcSrpZJggD-20" value="Frontend" style="swimlane;fontStyle=1;align=center;verticalAlign=top;childLayout=stackLayout;horizontal=1;startSize=26;horizontalStack=0;resizeParent=1;resizeParentMax=0;resizeLast=0;collapsible=1;marginBottom=0;" vertex="1" parent="1">
                    <mxGeometry x="1380" y="230" width="200" height="120" as="geometry"/>
                </mxCell>
                <mxCell id="XjmrS7N3WGPcSrpZJggD-21" value="+ createImageBrowser()&#xa;+ openUploadModal()&#xa;+ handleFileUpload()&#xa;+ openSettings()" style="text;strokeColor=none;fillColor=none;align=left;verticalAlign=top;spacingLeft=4;spacingRight=4;overflow=hidden;rotatable=0;points=[[0,0.5],[1,0.5]];portConstraint=eastwest;" vertex="1" parent="XjmrS7N3WGPcSrpZJggD-20">
                    <mxGeometry y="26" width="200" height="94" as="geometry"/>
                </mxCell>
                <mxCell id="XjmrS7N3WGPcSrpZJggD-22" value="Storage" style="swimlane;fontStyle=1;align=center;verticalAlign=top;childLayout=stackLayout;horizontal=1;startSize=26;horizontalStack=0;resizeParent=1;resizeParentMax=0;resizeLast=0;collapsible=1;marginBottom=0;" vertex="1" parent="1">
                    <mxGeometry x="1100" y="430" width="200" height="100" as="geometry"/>
                </mxCell>
                <mxCell id="XjmrS7N3WGPcSrpZJggD-23" value="images/&#xa;uploads/&#xa;converted/&#xa;static/" style="text;strokeColor=none;fillColor=none;align=left;verticalAlign=top;spacingLeft=4;spacingRight=4;overflow=hidden;rotatable=0;points=[[0,0.5],[1,0.5]];portConstraint=eastwest;" vertex="1" parent="XjmrS7N3WGPcSrpZJggD-22">
                    <mxGeometry y="26" width="200" height="74" as="geometry"/>
                </mxCell>
                <mxCell id="XjmrS7N3WGPcSrpZJggD-24" value="" style="endArrow=block;dashed=1;endFill=0;endSize=12;html=1;" edge="1" parent="1" source="XjmrS7N3WGPcSrpZJggD-13" target="XjmrS7N3WGPcSrpZJggD-16">
                    <mxGeometry width="160" relative="1" as="geometry"/>
                </mxCell>
                <mxCell id="XjmrS7N3WGPcSrpZJggD-25" value="" style="endArrow=block;dashed=1;endFill=0;endSize=12;html=1;" edge="1" parent="1" source="XjmrS7N3WGPcSrpZJggD-13" target="XjmrS7N3WGPcSrpZJggD-18">
                    <mxGeometry width="160" relative="1" as="geometry"/>
                </mxCell>
                <mxCell id="XjmrS7N3WGPcSrpZJggD-26" value="" style="endArrow=block;dashed=1;endFill=0;endSize=12;html=1;" edge="1" parent="1" source="XjmrS7N3WGPcSrpZJggD-13" target="XjmrS7N3WGPcSrpZJggD-20">
                    <mxGeometry width="160" relative="1" as="geometry"/>
                </mxCell>
                <mxCell id="XjmrS7N3WGPcSrpZJggD-27" value="" style="endArrow=block;dashed=1;endFill=0;endSize=12;html=1;" edge="1" parent="1" source="XjmrS7N3WGPcSrpZJggD-16" target="XjmrS7N3WGPcSrpZJggD-22">
                    <mxGeometry width="160" relative="1" as="geometry"/>
                </mxCell>
            </root>
        </mxGraphModel>
    </diagram>
    <diagram id="user-flow" name="User Flow">
        <mxGraphModel dx="1618" dy="467" grid="1" gridSize="10" guides="1" tooltips="1" connect="1" arrows="1" fold="1" page="1" pageScale="1" pageWidth="827" pageHeight="1169" math="0" shadow="0">
            <root>
                <mxCell id="0"/>
                <mxCell id="1" parent="0"/>
                <mxCell id="2" value="Start" style="ellipse;whiteSpace=wrap;fillColor=#dae8fc;strokeColor=#6c8ebf;" parent="1" vertex="1">
                    <mxGeometry x="350" y="40" width="120" height="60" as="geometry"/>
                </mxCell>
                <mxCell id="3" value="Image Gallery&#xa;(Welcome Screen)" style="rounded=1;whiteSpace=wrap;fillColor=#d5e8d4;strokeColor=#82b366;" parent="1" vertex="1">
                    <mxGeometry x="330" y="140" width="160" height="60" as="geometry"/>
                </mxCell>
                <mxCell id="4" value="Upload Image" style="rounded=1;whiteSpace=wrap;fillColor=#fff2cc;strokeColor=#d6b656;" parent="1" vertex="1">
                    <mxGeometry x="80" y="260" width="120" height="60" as="geometry"/>
                </mxCell>
                <mxCell id="5" value="Add URL" style="rounded=1;whiteSpace=wrap;fillColor=#fff2cc;strokeColor=#d6b656;" parent="1" vertex="1">
                    <mxGeometry x="240" y="260" width="120" height="60" as="geometry"/>
                </mxCell>
                <mxCell id="6" value="Select Existing" style="rounded=1;whiteSpace=wrap;fillColor=#fff2cc;strokeColor=#d6b656;" parent="1" vertex="1">
                    <mxGeometry x="400" y="260" width="120" height="60" as="geometry"/>
                </mxCell>
                <mxCell id="7" value="Settings" style="rounded=1;whiteSpace=wrap;fillColor=#fff2cc;strokeColor=#d6b656;" parent="1" vertex="1">
                    <mxGeometry x="560" y="260" width="120" height="60" as="geometry"/>
                </mxCell>
                <mxCell id="8" value="ANSI Conversion" style="rounded=1;whiteSpace=wrap;fillColor=#e1d5e7;strokeColor=#9673a6;" parent="1" vertex="1">
                    <mxGeometry x="330" y="380" width="160" height="60" as="geometry"/>
                </mxCell>
                <mxCell id="9" value="Adjust Controls" style="rounded=1;whiteSpace=wrap;fillColor=#f8cecc;strokeColor=#b85450;" parent="1" vertex="1">
                    <mxGeometry x="150" y="500" width="120" height="60" as="geometry"/>
                </mxCell>
                <mxCell id="10" value="Apply Animation" style="rounded=1;whiteSpace=wrap;fillColor=#f8cecc;strokeColor=#b85450;" parent="1" vertex="1">
                    <mxGeometry x="330" y="500" width="120" height="60" as="geometry"/>
                </mxCell>
                <mxCell id="11" value="Download ANSI" style="rounded=1;whiteSpace=wrap;fillColor=#f8cecc;strokeColor=#b85450;" parent="1" vertex="1">
                    <mxGeometry x="510" y="500" width="120" height="60" as="geometry"/>
                </mxCell>
                <mxCell id="12" value="View Result" style="ellipse;whiteSpace=wrap;fillColor=#dae8fc;strokeColor=#6c8ebf;" parent="1" vertex="1">
                    <mxGeometry x="350" y="620" width="120" height="60" as="geometry"/>
                </mxCell>
                <mxCell id="13" value="" style="endArrow=classic;html=1;" parent="1" source="2" target="3" edge="1">
                    <mxGeometry width="50" height="50" relative="1" as="geometry"/>
                </mxCell>
                <mxCell id="14" value="" style="endArrow=classic;html=1;" parent="1" source="3" target="4" edge="1">
                    <mxGeometry width="50" height="50" relative="1" as="geometry"/>
                </mxCell>
                <mxCell id="15" value="" style="endArrow=classic;html=1;" parent="1" source="3" target="5" edge="1">
                    <mxGeometry width="50" height="50" relative="1" as="geometry"/>
                </mxCell>
                <mxCell id="16" value="" style="endArrow=classic;html=1;" parent="1" source="3" target="6" edge="1">
                    <mxGeometry width="50" height="50" relative="1" as="geometry"/>
                </mxCell>
                <mxCell id="17" value="" style="endArrow=classic;html=1;" parent="1" source="3" target="7" edge="1">
                    <mxGeometry width="50" height="50" relative="1" as="geometry"/>
                </mxCell>
                <mxCell id="18" value="" style="endArrow=classic;html=1;" parent="1" source="4" target="8" edge="1">
                    <mxGeometry width="50" height="50" relative="1" as="geometry"/>
                </mxCell>
                <mxCell id="19" value="" style="endArrow=classic;html=1;" parent="1" source="5" target="8" edge="1">
                    <mxGeometry width="50" height="50" relative="1" as="geometry"/>
                </mxCell>
                <mxCell id="20" value="" style="endArrow=classic;html=1;" parent="1" source="6" target="8" edge="1">
                    <mxGeometry width="50" height="50" relative="1" as="geometry"/>
                </mxCell>
                <mxCell id="21" value="" style="endArrow=classic;html=1;" parent="1" source="8" target="9" edge="1">
                    <mxGeometry width="50" height="50" relative="1" as="geometry"/>
                </mxCell>
                <mxCell id="22" value="" style="endArrow=classic;html=1;" parent="1" source="8" target="10" edge="1">
                    <mxGeometry width="50" height="50" relative="1" as="geometry"/>
                </mxCell>
                <mxCell id="23" value="" style="endArrow=classic;html=1;" parent="1" source="8" target="11" edge="1">
                    <mxGeometry width="50" height="50" relative="1" as="geometry"/>
                </mxCell>
                <mxCell id="24" value="" style="endArrow=classic;html=1;" parent="1" source="9" target="12" edge="1">
                    <mxGeometry width="50" height="50" relative="1" as="geometry"/>
                </mxCell>
                <mxCell id="25" value="" style="endArrow=classic;html=1;" parent="1" source="10" target="12" edge="1">
                    <mxGeometry width="50" height="50" relative="1" as="geometry"/>
                </mxCell>
                <mxCell id="26" value="" style="endArrow=classic;html=1;" parent="1" source="11" target="12" edge="1">
                    <mxGeometry width="50" height="50" relative="1" as="geometry"/>
                </mxCell>
            </root>
        </mxGraphModel>
    </diagram>
    <diagram id="component-interaction" name="Component Interaction">
        <mxGraphModel dx="824" dy="467" grid="1" gridSize="10" guides="1" tooltips="1" connect="1" arrows="1" fold="1" page="1" pageScale="1" pageWidth="827" pageHeight="1169" math="0" shadow="0">
            <root>
                <mxCell id="0"/>
                <mxCell id="1" parent="0"/>
                <mxCell id="2" value="Image Browser&#xa;(imageBrowser.js)" style="rounded=1;whiteSpace=wrap;fillColor=#d5e8d4;strokeColor=#82b366;" parent="1" vertex="1">
                    <mxGeometry x="300" y="40" width="160" height="80" as="geometry"/>
                </mxCell>
                <mxCell id="3" value="Sidebar&#xa;(Upload, Settings, Help)" style="rounded=1;whiteSpace=wrap;fillColor=#fff2cc;strokeColor=#d6b656;" parent="1" vertex="1">
                    <mxGeometry x="80" y="180" width="140" height="60" as="geometry"/>
                </mxCell>
                <mxCell id="4" value="Upload Modal" style="rounded=1;whiteSpace=wrap;fillColor=#fff2cc;strokeColor=#d6b656;" parent="1" vertex="1">
                    <mxGeometry x="260" y="180" width="120" height="60" as="geometry"/>
                </mxCell>
                <mxCell id="5" value="Settings Modal" style="rounded=1;whiteSpace=wrap;fillColor=#fff2cc;strokeColor=#d6b656;" parent="1" vertex="1">
                    <mxGeometry x="420" y="180" width="120" height="60" as="geometry"/>
                </mxCell>
                <mxCell id="6" value="Help Modal" style="rounded=1;whiteSpace=wrap;fillColor=#fff2cc;strokeColor=#d6b656;" parent="1" vertex="1">
                    <mxGeometry x="580" y="180" width="120" height="60" as="geometry"/>
                </mxCell>
                <mxCell id="7" value="ANSI Viewer&#xa;(ansi_viewer.js)" style="rounded=1;whiteSpace=wrap;fillColor=#e1d5e7;strokeColor=#9673a6;" parent="1" vertex="1">
                    <mxGeometry x="140" y="320" width="140" height="80" as="geometry"/>
                </mxCell>
                <mxCell id="8" value="Animation Controls" style="rounded=1;whiteSpace=wrap;fillColor=#e1d5e7;strokeColor=#9673a6;" parent="1" vertex="1">
                    <mxGeometry x="320" y="320" width="140" height="80" as="geometry"/>
                </mxCell>
                <mxCell id="9" value="Download Handler" style="rounded=1;whiteSpace=wrap;fillColor=#e1d5e7;strokeColor=#9673a6;" parent="1" vertex="1">
                    <mxGeometry x="500" y="320" width="140" height="80" as="geometry"/>
                </mxCell>
                <mxCell id="10" value="Flask Server&#xa;(server.py)" style="rounded=1;whiteSpace=wrap;fillColor=#f8cecc;strokeColor=#b85450;" parent="1" vertex="1">
                    <mxGeometry x="300" y="460" width="160" height="80" as="geometry"/>
                </mxCell>
                <mxCell id="11" value="Template Renderer&#xa;(template_renderer.py)" style="rounded=1;whiteSpace=wrap;fillColor=#dae8fc;strokeColor=#6c8ebf;" parent="1" vertex="1">
                    <mxGeometry x="80" y="460" width="160" height="80" as="geometry"/>
                </mxCell>
                <mxCell id="12" value="Utils&#xa;(file_utils, image_utils)" style="rounded=1;whiteSpace=wrap;fillColor=#dae8fc;strokeColor=#6c8ebf;" parent="1" vertex="1">
                    <mxGeometry x="520" y="460" width="160" height="80" as="geometry"/>
                </mxCell>
                <mxCell id="13" value="" style="endArrow=classic;startArrow=classic;html=1;" parent="1" source="2" target="3" edge="1">
                    <mxGeometry width="50" height="50" relative="1" as="geometry"/>
                </mxCell>
                <mxCell id="14" value="" style="endArrow=classic;startArrow=classic;html=1;" parent="1" source="2" target="4" edge="1">
                    <mxGeometry width="50" height="50" relative="1" as="geometry"/>
                </mxCell>
                <mxCell id="15" value="" style="endArrow=classic;startArrow=classic;html=1;" parent="1" source="2" target="5" edge="1">
                    <mxGeometry width="50" height="50" relative="1" as="geometry"/>
                </mxCell>
                <mxCell id="16" value="" style="endArrow=classic;startArrow=classic;html=1;" parent="1" source="2" target="6" edge="1">
                    <mxGeometry width="50" height="50" relative="1" as="geometry"/>
                </mxCell>
                <mxCell id="17" value="" style="endArrow=classic;html=1;" parent="1" source="2" target="7" edge="1">
                    <mxGeometry width="50" height="50" relative="1" as="geometry"/>
                </mxCell>
                <mxCell id="18" value="" style="endArrow=classic;html=1;" parent="1" source="7" target="8" edge="1">
                    <mxGeometry width="50" height="50" relative="1" as="geometry"/>
                </mxCell>
                <mxCell id="19" value="" style="endArrow=classic;html=1;" parent="1" source="7" target="9" edge="1">
                    <mxGeometry width="50" height="50" relative="1" as="geometry"/>
                </mxCell>
                <mxCell id="20" value="" style="endArrow=classic;html=1;" parent="1" source="2" target="10" edge="1">
                    <mxGeometry width="50" height="50" relative="1" as="geometry"/>
                </mxCell>
                <mxCell id="21" value="" style="endArrow=classic;html=1;" parent="1" source="10" target="11" edge="1">
                    <mxGeometry width="50" height="50" relative="1" as="geometry"/>
                </mxCell>
                <mxCell id="22" value="" style="endArrow=classic;html=1;" parent="1" source="10" target="12" edge="1">
                    <mxGeometry width="50" height="50" relative="1" as="geometry"/>
                </mxCell>
            </root>
        </mxGraphModel>
    </diagram>
    <diagram id="ui-mockup" name="UI Mockup">
        <mxGraphModel dx="1200" dy="800" grid="1" gridSize="10" guides="1" tooltips="1" connect="1" arrows="1" fold="1" page="1" pageScale="1" pageWidth="827" pageHeight="1169" math="0" shadow="0">
            <root>
                <mxCell id="0"/>
                <mxCell id="1" parent="0"/>
                <!-- Main Application Window -->
                <mxCell id="2" value="" style="rounded=0;whiteSpace=wrap;fillColor=#1a1a1a;strokeColor=#ffffff;" vertex="1" parent="1">
                    <mxGeometry x="40" y="40" width="760" height="500" as="geometry"/>
                </mxCell>
                <!-- Sidebar -->
                <mxCell id="3" value="" style="rounded=0;whiteSpace=wrap;fillColor=#2a2a2a;strokeColor=#666666;" vertex="1" parent="1">
                    <mxGeometry x="40" y="40" width="60" height="500" as="geometry"/>
                </mxCell>
                <!-- Sidebar Buttons -->
                <mxCell id="4" value="📤" style="rounded=1;whiteSpace=wrap;fillColor=#333333;fontColor=#ffffff;fontSize=16;" vertex="1" parent="1">
                    <mxGeometry x="50" y="60" width="40" height="40" as="geometry"/>
                </mxCell>
                <mxCell id="5" value="⚙️" style="rounded=1;whiteSpace=wrap;fillColor=#333333;fontColor=#ffffff;fontSize=16;" vertex="1" parent="1">
                    <mxGeometry x="50" y="110" width="40" height="40" as="geometry"/>
                </mxCell>
                <mxCell id="6" value="❔" style="rounded=1;whiteSpace=wrap;fillColor=#333333;fontColor=#ffffff;fontSize=16;" vertex="1" parent="1">
                    <mxGeometry x="50" y="160" width="40" height="40" as="geometry"/>
                </mxCell>
                <!-- Welcome Section -->
                <mxCell id="7" value="PixelPipe: Turn Your Images Into ANSI Art" style="text;html=1;strokeColor=none;fillColor=none;align=center;verticalAlign=middle;whiteSpace=wrap;rounded=0;fontColor=#ffffff;fontSize=24;fontStyle=1;" vertex="1" parent="1">
                    <mxGeometry x="120" y="60" width="660" height="40" as="geometry"/>
                </mxCell>
                <!-- Upload Zone -->
                <mxCell id="8" value="" style="rounded=1;whiteSpace=wrap;fillColor=none;strokeColor=#4CAF50;strokeWidth=2;dashed=1;" vertex="1" parent="1">
                    <mxGeometry x="240" y="120" width="420" height="100" as="geometry"/>
                </mxCell>
                <mxCell id="9" value="Drop an image here or click to browse" style="text;html=1;strokeColor=none;fillColor=none;align=center;verticalAlign=middle;whiteSpace=wrap;rounded=0;fontColor=#4CAF50;fontSize=16;" vertex="1" parent="1">
                    <mxGeometry x="260" y="150" width="380" height="40" as="geometry"/>
                </mxCell>
                <!-- URL Input -->
                <mxCell id="10" value="" style="rounded=1;whiteSpace=wrap;fillColor=#333333;strokeColor=#666666;" vertex="1" parent="1">
                    <mxGeometry x="240" y="180" width="320" height="30" as="geometry"/>
                </mxCell>
                <mxCell id="11" value="...or paste an image URL here" style="text;html=1;strokeColor=none;fillColor=none;align=left;verticalAlign=middle;whiteSpace=wrap;rounded=0;fontColor=#aaaaaa;fontSize=12;" vertex="1" parent="1">
                    <mxGeometry x="250" y="182" width="300" height="26" as="geometry"/>
                </mxCell>
                <mxCell id="12" value="Add URL" style="rounded=1;whiteSpace=wrap;fillColor=#4CAF50;strokeColor=none;fontColor=#ffffff;fontSize=12;" vertex="1" parent="1">
                    <mxGeometry x="570" y="180" width="80" height="30" as="geometry"/>
                </mxCell>
                <!-- Gallery Title -->
                <mxCell id="13" value="Image Gallery" style="text;html=1;strokeColor=none;fillColor=none;align=center;verticalAlign=middle;whiteSpace=wrap;rounded=0;fontColor=#ffffff;fontSize=20;fontStyle=1;" vertex="1" parent="1">
                    <mxGeometry x="120" y="260" width="660" height="30" as="geometry"/>
                </mxCell>
                <!-- Image Grid -->
                <mxCell id="14" value="" style="rounded=1;whiteSpace=wrap;fillColor=#2a2a2a;strokeColor=#444444;" vertex="1" parent="1">
                    <mxGeometry x="140" y="310" width="120" height="120" as="geometry"/>
                </mxCell>
                <mxCell id="15" value="Image 1" style="text;html=1;strokeColor=none;fillColor=none;align=center;verticalAlign=middle;whiteSpace=wrap;rounded=0;fontColor=#cccccc;" vertex="1" parent="1">
                    <mxGeometry x="140" y="360" width="120" height="20" as="geometry"/>
                </mxCell>
                <mxCell id="16" value="" style="rounded=1;whiteSpace=wrap;fillColor=#2a2a2a;strokeColor=#444444;" vertex="1" parent="1">
                    <mxGeometry x="280" y="310" width="120" height="120" as="geometry"/>
                </mxCell>
                <mxCell id="17" value="Image 2" style="text;html=1;strokeColor=none;fillColor=none;align=center;verticalAlign=middle;whiteSpace=wrap;rounded=0;fontColor=#cccccc;" vertex="1" parent="1">
                    <mxGeometry x="280" y="360" width="120" height="20" as="geometry"/>
                </mxCell>
                <mxCell id="18" value="" style="rounded=1;whiteSpace=wrap;fillColor=#2a2a2a;strokeColor=#444444;" vertex="1" parent="1">
                    <mxGeometry x="420" y="310" width="120" height="120" as="geometry"/>
                </mxCell>
                <mxCell id="19" value="Image 3" style="text;html=1;strokeColor=none;fillColor=none;align=center;verticalAlign=middle;whiteSpace=wrap;rounded=0;fontColor=#cccccc;" vertex="1" parent="1">
                    <mxGeometry x="420" y="360" width="120" height="20" as="geometry"/>
                </mxCell>
                <mxCell id="20" value="" style="rounded=1;whiteSpace=wrap;fillColor=#2a2a2a;strokeColor=#444444;" vertex="1" parent="1">
                    <mxGeometry x="560" y="310" width="120" height="120" as="geometry"/>
                </mxCell>
                <mxCell id="21" value="Image 4" style="text;html=1;strokeColor=none;fillColor=none;align=center;verticalAlign=middle;whiteSpace=wrap;rounded=0;fontColor=#cccccc;" vertex="1" parent="1">
                    <mxGeometry x="560" y="360" width="120" height="20" as="geometry"/>
                </mxCell>
            </root>
        </mxGraphModel>
    </diagram>
    <diagram id="ansi-conversion-process" name="ANSI Conversion Process">
        <mxGraphModel dx="1200" dy="800" grid="1" gridSize="10" guides="1" tooltips="1" connect="1" arrows="1" fold="1" page="1" pageScale="1" pageWidth="827" pageHeight="1169" math="0" shadow="0">
            <root>
                <mxCell id="0"/>
                <mxCell id="1" parent="0"/>
                <!-- Input -->
                <mxCell id="2" value="Image Input" style="rounded=1;whiteSpace=wrap;fillColor=#d5e8d4;strokeColor=#82b366;" vertex="1" parent="1">
                    <mxGeometry x="40" y="160" width="100" height="60" as="geometry"/>
                </mxCell>
                <!-- Processing Steps -->
                <mxCell id="3" value="Load Image&#xa;(PIL)" style="rounded=1;whiteSpace=wrap;fillColor=#fff2cc;strokeColor=#d6b656;" vertex="1" parent="1">
                    <mxGeometry x="180" y="160" width="100" height="60" as="geometry"/>
                </mxCell>
                <mxCell id="4" value="Resize&#xa;(Resolution)" style="rounded=1;whiteSpace=wrap;fillColor=#fff2cc;strokeColor=#d6b656;" vertex="1" parent="1">
                    <mxGeometry x="320" y="160" width="100" height="60" as="geometry"/>
                </mxCell>
                <mxCell id="5" value="Extract RGB&#xa;Pixels" style="rounded=1;whiteSpace=wrap;fillColor=#fff2cc;strokeColor=#d6b656;" vertex="1" parent="1">
                    <mxGeometry x="460" y="160" width="100" height="60" as="geometry"/>
                </mxCell>
                <mxCell id="6" value="Apply Brightness" style="rounded=1;whiteSpace=wrap;fillColor=#e1d5e7;strokeColor=#9673a6;" vertex="1" parent="1">
                    <mxGeometry x="600" y="160" width="100" height="60" as="geometry"/>
                </mxCell>
                <mxCell id="7" value="RGB to ANSI&#xa;Character Map" style="rounded=1;whiteSpace=wrap;fillColor=#e1d5e7;strokeColor=#9673a6;" vertex="1" parent="1">
                    <mxGeometry x="740" y="160" width="100" height="60" as="geometry"/>
                </mxCell>
                <!-- Animation Branch -->
                <mxCell id="8" value="Apply Animation&#xa;Effects" style="rounded=1;whiteSpace=wrap;fillColor=#f8cecc;strokeColor=#b85450;" vertex="1" parent="1">
                    <mxGeometry x="600" y="280" width="100" height="60" as="geometry"/>
                </mxCell>
                <!-- Template Processing -->
                <mxCell id="9" value="Template&#xa;Rendering" style="rounded=1;whiteSpace=wrap;fillColor=#dae8fc;strokeColor=#6c8ebf;" vertex="1" parent="1">
                    <mxGeometry x="460" y="380" width="100" height="60" as="geometry"/>
                </mxCell>
                <mxCell id="10" value="Generate HTML&#xa;Output" style="rounded=1;whiteSpace=wrap;fillColor=#dae8fc;strokeColor=#6c8ebf;" vertex="1" parent="1">
                    <mxGeometry x="320" y="380" width="100" height="60" as="geometry"/>
                </mxCell>
                <!-- Output -->
                <mxCell id="11" value="ANSI Art&#xa;Display" style="rounded=1;whiteSpace=wrap;fillColor=#d5e8d4;strokeColor=#82b366;" vertex="1" parent="1">
                    <mxGeometry x="180" y="380" width="100" height="60" as="geometry"/>
                </mxCell>
                <!-- Parameter Labels -->
                <mxCell id="12" value="max_width" style="text;html=1;strokeColor=none;fillColor=none;align=center;verticalAlign=middle;whiteSpace=wrap;rounded=0;fontColor=#666666;fontSize=10;" vertex="1" parent="1">
                    <mxGeometry x="320" y="130" width="100" height="20" as="geometry"/>
                </mxCell>
                <mxCell id="13" value="brightness" style="text;html=1;strokeColor=none;fillColor=none;align=center;verticalAlign=middle;whiteSpace=wrap;rounded=0;fontColor=#666666;fontSize=10;" vertex="1" parent="1">
                    <mxGeometry x="600" y="130" width="100" height="20" as="geometry"/>
                </mxCell>
                <mxCell id="14" value="anim_type" style="text;html=1;strokeColor=none;fillColor=none;align=center;verticalAlign=middle;whiteSpace=wrap;rounded=0;fontColor=#666666;fontSize=10;" vertex="1" parent="1">
                    <mxGeometry x="600" y="250" width="100" height="20" as="geometry"/>
                </mxCell>
                <!-- Flow Arrows -->
                <mxCell id="15" value="" style="endArrow=classic;html=1;strokeWidth=2;" edge="1" parent="1" source="2" target="3">
                    <mxGeometry width="50" height="50" relative="1" as="geometry"/>
                </mxCell>
                <mxCell id="16" value="" style="endArrow=classic;html=1;strokeWidth=2;" edge="1" parent="1" source="3" target="4">
                    <mxGeometry width="50" height="50" relative="1" as="geometry"/>
                </mxCell>
                <mxCell id="17" value="" style="endArrow=classic;html=1;strokeWidth=2;" edge="1" parent="1" source="4" target="5">
                    <mxGeometry width="50" height="50" relative="1" as="geometry"/>
                </mxCell>
                <mxCell id="18" value="" style="endArrow=classic;html=1;strokeWidth=2;" edge="1" parent="1" source="5" target="6">
                    <mxGeometry width="50" height="50" relative="1" as="geometry"/>
                </mxCell>
                <mxCell id="19" value="" style="endArrow=classic;html=1;strokeWidth=2;" edge="1" parent="1" source="6" target="7">
                    <mxGeometry width="50" height="50" relative="1" as="geometry"/>
                </mxCell>
                <mxCell id="20" value="" style="endArrow=classic;html=1;strokeWidth=2;dashed=1;" edge="1" parent="1" source="7" target="8">
                    <mxGeometry width="50" height="50" relative="1" as="geometry"/>
                </mxCell>
                <mxCell id="21" value="" style="endArrow=classic;html=1;strokeWidth=2;" edge="1" parent="1" source="7" target="9">
                    <mxGeometry width="50" height="50" relative="1" as="geometry"/>
                </mxCell>
                <mxCell id="22" value="" style="endArrow=classic;html=1;strokeWidth=2;" edge="1" parent="1" source="8" target="9">
                    <mxGeometry width="50" height="50" relative="1" as="geometry"/>
                </mxCell>
                <mxCell id="23" value="" style="endArrow=classic;html=1;strokeWidth=2;" edge="1" parent="1" source="9" target="10">
                    <mxGeometry width="50" height="50" relative="1" as="geometry"/>
                </mxCell>
                <mxCell id="24" value="" style="endArrow=classic;html=1;strokeWidth=2;" edge="1" parent="1" source="10" target="11">
                    <mxGeometry width="50" height="50" relative="1" as="geometry"/>
                </mxCell>
                <!-- Labels -->
                <mxCell id="25" value="Optional" style="text;html=1;strokeColor=none;fillColor=none;align=center;verticalAlign=middle;whiteSpace=wrap;rounded=0;fontColor=#b85450;fontSize=10;fontStyle=2;" vertex="1" parent="1">
                    <mxGeometry x="710" y="240" width="60" height="20" as="geometry"/>
                </mxCell>
            </root>
        </mxGraphModel>
    </diagram>
    <diagram id="template-system" name="Template System">
        <mxGraphModel dx="1200" dy="800" grid="1" gridSize="10" guides="1" tooltips="1" connect="1" arrows="1" fold="1" page="1" pageScale="1" pageWidth="827" pageHeight="1169" math="0" shadow="0">
            <root>
                <mxCell id="0"/>
                <mxCell id="1" parent="0"/>
                <!-- Templates -->
                <mxCell id="2" value="templates/" style="swimlane;fontStyle=1;align=center;verticalAlign=top;childLayout=stackLayout;horizontal=1;startSize=26;fillColor=#e1d5e7;strokeColor=#9673a6;" vertex="1" parent="1">
                    <mxGeometry x="40" y="40" width="200" height="140" as="geometry"/>
                </mxCell>
                <mxCell id="3" value="ansi_viewer.html&#xa;animated_viewer.html&#xa;imageBrowser.html" style="text;strokeColor=none;fillColor=none;align=left;verticalAlign=top;spacingLeft=4;" vertex="1" parent="2">
                    <mxGeometry y="26" width="200" height="114" as="geometry"/>
                </mxCell>
                <!-- Context Data -->
                <mxCell id="4" value="Context Variables" style="swimlane;fontStyle=1;align=center;verticalAlign=top;childLayout=stackLayout;horizontal=1;startSize=26;fillColor=#fff2cc;strokeColor=#d6b656;" vertex="1" parent="1">
                    <mxGeometry x="300" y="40" width="200" height="140" as="geometry"/>
                </mxCell>
                <mxCell id="5" value="{{ansi_art}}&#xa;{{image_path}}&#xa;{{filename}}&#xa;{{animations}}" style="text;strokeColor=none;fillColor=none;align=left;verticalAlign=top;spacingLeft=4;" vertex="1" parent="4">
                    <mxGeometry y="26" width="200" height="114" as="geometry"/>
                </mxCell>
                <!-- Template Renderer -->
                <mxCell id="6" value="Template Renderer" style="swimlane;fontStyle=1;align=center;verticalAlign=top;childLayout=stackLayout;horizontal=1;startSize=26;fillColor=#d5e8d4;strokeColor=#82b366;" vertex="1" parent="1">
                    <mxGeometry x="160" y="220" width="240" height="100" as="geometry"/>
                </mxCell>
                <mxCell id="7" value="render_template()&#xa;escape_js_string()&#xa;Context substitution" style="text;strokeColor=none;fillColor=none;align=left;verticalAlign=top;spacingLeft=4;" vertex="1" parent="6">
                    <mxGeometry y="26" width="240" height="74" as="geometry"/>
                </mxCell>
                <!-- Output -->
                <mxCell id="8" value="Generated HTML" style="rounded=1;whiteSpace=wrap;fillColor=#f8cecc;strokeColor=#b85450;" vertex="1" parent="1">
                    <mxGeometry x="220" y="360" width="120" height="60" as="geometry"/>
                </mxCell>
                <!-- Processing Flow -->
                <mxCell id="9" value="" style="endArrow=classic;html=1;strokeWidth=2;" edge="1" parent="1" source="2" target="6">
                    <mxGeometry width="50" height="50" relative="1" as="geometry"/>
                </mxCell>
                <mxCell id="10" value="" style="endArrow=classic;html=1;strokeWidth=2;" edge="1" parent="1" source="4" target="6">
                    <mxGeometry width="50" height="50" relative="1" as="geometry"/>
                </mxCell>
                <mxCell id="11" value="" style="endArrow=classic;html=1;strokeWidth=2;" edge="1" parent="1" source="6" target="8">
                    <mxGeometry width="50" height="50" relative="1" as="geometry"/>
                </mxCell>
                <!-- Benefits Box -->
                <mxCell id="12" value="Benefits" style="swimlane;fontStyle=1;align=center;verticalAlign=top;childLayout=stackLayout;horizontal=1;startSize=26;fillColor=#dae8fc;strokeColor=#6c8ebf;" vertex="1" parent="1">
                    <mxGeometry x="560" y="40" width="200" height="140" as="geometry"/>
                </mxCell>
                <mxCell id="13" value="• Separation of concerns&#xa;• Easy maintenance&#xa;• Reusable templates&#xa;• Clean Python code&#xa;• Safe JS escaping" style="text;strokeColor=none;fillColor=none;align=left;verticalAlign=top;spacingLeft=4;" vertex="1" parent="12">
                    <mxGeometry y="26" width="200" height="114" as="geometry"/>
                </mxCell>
            </root>
        </mxGraphModel>
    </diagram>
</mxfile>